<?xml version="1.0" encoding="UTF-8"?>
<svg class="" width="512" height="512" enable-background="new 0 0 512 512" version="1.1" viewBox="0 0 480 480" xml:space="preserve" xmlns="http://www.w3.org/2000/svg">
<g xmlns="http://www.w3.org/2000/svg">
	
		<path class="" d="m240 0c-132.34 0-240 107.66-240 240 0 57.96 20.656 111.18 54.992 152.7 0.088 0.12 0.096 0.272 0.192 0.384 24.792 29.896 55.928 52.816 90.624 67.624 0.4 0.168 0.792 0.352 1.192 0.52 2.808 1.184 5.648 2.28 8.496 3.352 1.12 0.424 2.24 0.856 3.376 1.264 2.456 0.88 4.928 1.712 7.416 2.512 1.592 0.512 3.184 1.016 4.792 1.496 2.2 0.656 4.408 1.288 6.632 1.888 1.952 0.528 3.92 1.016 5.888 1.488 1.992 0.48 3.992 0.96 6 1.384 2.24 0.48 4.504 0.904 6.776 1.32 1.824 0.336 3.64 0.688 5.48 0.984 2.52 0.408 5.056 0.728 7.6 1.056 1.64 0.208 3.272 0.448 4.92 0.624 2.88 0.304 5.784 0.52 8.696 0.72 1.352 0.096 2.696 0.24 4.056 0.312 4.248 0.24 8.544 0.368 12.872 0.368s8.624-0.128 12.888-0.352c1.36-0.072 2.704-0.216 4.056-0.312 2.912-0.208 5.816-0.416 8.696-0.72 1.648-0.176 3.28-0.416 4.92-0.624 2.544-0.328 5.08-0.648 7.6-1.056 1.832-0.296 3.656-0.648 5.48-0.984 2.264-0.416 4.528-0.84 6.776-1.32 2.008-0.432 4-0.904 6-1.384 1.968-0.48 3.936-0.968 5.888-1.488 2.224-0.592 4.432-1.232 6.632-1.888 1.608-0.48 3.2-0.984 4.792-1.496 2.488-0.8 4.96-1.632 7.416-2.512 1.128-0.408 2.248-0.84 3.376-1.264 2.856-1.072 5.688-2.176 8.496-3.352 0.4-0.168 0.792-0.352 1.192-0.52 34.688-14.808 65.832-37.728 90.624-67.624 0.096-0.112 0.104-0.272 0.192-0.384 34.32-41.536 54.976-94.76 54.976-152.72 0-132.34-107.66-240-240-240zm97.256 441.76c-0.12 0.056-0.232 0.12-0.352 0.176-2.856 1.376-5.76 2.672-8.688 3.936-0.664 0.28-1.32 0.568-1.984 0.848-2.56 1.072-5.152 2.088-7.76 3.064-1.088 0.408-2.176 0.808-3.272 1.192-2.312 0.824-4.632 1.616-6.976 2.368-1.456 0.464-2.92 0.904-4.384 1.336-2.08 0.624-4.168 1.224-6.28 1.784-1.776 0.472-3.568 0.904-5.36 1.328-1.88 0.448-3.752 0.904-5.648 1.304-2.072 0.44-4.16 0.816-6.24 1.192-1.688 0.312-3.368 0.64-5.072 0.912-2.344 0.368-4.712 0.664-7.072 0.96-1.496 0.192-2.984 0.416-4.496 0.576-2.696 0.288-5.416 0.472-8.128 0.664-1.208 0.08-2.408 0.216-3.632 0.28-3.96 0.208-7.928 0.32-11.912 0.32s-7.952-0.112-11.904-0.32c-1.216-0.064-2.416-0.192-3.632-0.28-2.72-0.184-5.432-0.376-8.128-0.664-1.512-0.16-3-0.384-4.496-0.576-2.36-0.296-4.728-0.592-7.072-0.96-1.704-0.272-3.384-0.6-5.072-0.912-2.088-0.376-4.176-0.76-6.24-1.192-1.896-0.4-3.776-0.856-5.648-1.304-1.792-0.432-3.584-0.856-5.36-1.328-2.104-0.56-4.2-1.168-6.28-1.784-1.464-0.432-2.928-0.872-4.384-1.336-2.344-0.752-4.672-1.544-6.976-2.368-1.096-0.392-2.184-0.792-3.272-1.192-2.608-0.976-5.2-1.992-7.76-3.064-0.664-0.272-1.312-0.56-1.976-0.84-2.928-1.256-5.832-2.56-8.696-3.936-0.12-0.056-0.232-0.112-0.352-0.176-27.912-13.504-52.568-32.672-72.576-55.952 15.464-56.944 59.24-102.85 115.56-121.11 1.112 0.68 2.272 1.288 3.416 1.928 0.672 0.376 1.336 0.776 2.016 1.136 2.384 1.264 4.8 2.448 7.272 3.512 1.896 0.832 3.856 1.536 5.808 2.256 0.384 0.136 0.768 0.288 1.152 0.424 10.848 3.84 22.456 6.04 34.6 6.04s23.752-2.2 34.592-6.04c0.384-0.136 0.768-0.288 1.152-0.424 1.952-0.72 3.912-1.424 5.808-2.256 2.472-1.064 4.888-2.248 7.272-3.512 0.68-0.368 1.344-0.76 2.016-1.136 1.144-0.64 2.312-1.248 3.432-1.936 56.32 18.272 100.09 64.176 115.56 121.11-20.008 23.272-44.664 42.44-72.576 55.952zm-185.26-265.76c0-48.52 39.48-88 88-88s88 39.48 88 88c0 30.864-16.008 58.024-40.128 73.736-3.152 2.048-6.432 3.88-9.8 5.48-0.4 0.192-0.792 0.392-1.192 0.576-23.168 10.536-50.592 10.536-73.76 0-0.4-0.184-0.8-0.384-1.192-0.576-3.376-1.6-6.648-3.432-9.8-5.48-24.12-15.712-40.128-42.872-40.128-73.736zm269.83 194.58c-18.136-53.552-59.512-96.832-112.38-117.39 21.144-19.048 34.544-46.552 34.544-77.192 0-57.344-46.656-104-104-104s-104 46.656-104 104c0 30.64 13.4 58.144 34.552 77.192-52.864 20.568-94.24 63.84-112.38 117.39-26.504-36.792-42.176-81.88-42.176-130.58 0-123.51 100.49-224 224-224s224 100.49 224 224c0 48.704-15.672 93.792-42.168 130.58z" fill="#813afe" style="" data-original="#000000"/>
	
</g>















</svg>
